<svg width="23" height="28" viewBox="0 0 23 28" fill="none" xmlns="http://www.w3.org/2000/svg">
<g clip-path="url(#clip0_7_87657)">
<path d="M2.89196 24.0589C3.90895 25.5228 5.29949 27.5246 7.09357 27.5246V27.5211H7.18498C7.86984 27.4777 8.53946 27.2985 9.15543 26.9937H9.17267C9.95229 26.6126 10.8069 26.4127 11.6735 26.409C12.5034 26.4181 13.3208 26.6134 14.0664 26.9807H14.0716C14.6946 27.2969 15.38 27.4685 16.0774 27.4829H16.1792C17.9841 27.4559 19.1378 25.939 20.3451 24.1093C21.1739 22.9141 21.8163 21.5983 22.25 20.2075V20.2006C21.5704 19.9123 20.9494 19.4999 20.4184 18.9842C19.832 18.4267 19.3666 17.753 19.0513 17.0054C18.7361 16.2578 18.578 15.4524 18.5868 14.6402C18.6038 13.586 18.8836 12.553 19.4003 11.636C19.9169 10.7191 20.654 9.94773 21.5438 9.39263C20.9766 8.57767 20.2289 7.9069 19.3599 7.43341C18.4909 6.95992 17.5245 6.6967 16.537 6.66459C16.3724 6.64982 16.2249 6.642 16.0989 6.642C15.0096 6.71096 13.9425 6.98378 12.9523 7.44651H12.9316C12.4223 7.69525 11.8757 7.8573 11.3139 7.92609C10.7214 7.86286 10.1448 7.69431 9.61074 7.42827H9.59177C8.73578 7.01896 7.80992 6.77861 6.86419 6.7202H6.78658C5.63538 6.75667 4.51323 7.09321 3.52964 7.69696C2.54603 8.30071 1.73459 9.15105 1.17449 10.165C0.0454163 12.3999 -0.282374 14.9594 0.246607 17.4099C0.663483 19.7824 1.5618 22.0427 2.88536 24.0493L2.89196 24.0589Z" fill="white"/>
<path d="M11.1 6.344C11.1889 6.35197 11.2781 6.35546 11.3674 6.35443C12.0995 6.31719 12.8157 6.12494 13.4691 5.79023C14.1225 5.4555 14.6987 4.98583 15.1599 4.41178C16.1822 3.18276 16.6844 1.59846 16.5586 0C15.0035 0.163702 13.5668 0.911959 12.535 2.09555C11.5165 3.26402 11.0004 4.79218 11.1 6.344Z" fill="white"/>
</g>
<defs>
<clipPath id="clip0_7_87657">
<rect width="23" height="28" fill="white"/>
</clipPath>
</defs>
</svg>
