<svg width="23" height="26" viewBox="0 0 23 26" fill="none" xmlns="http://www.w3.org/2000/svg">
<g clip-path="url(#clip0_7_87667)">
<path d="M16.5186 16.5951L13.066 13.136L1.64111 24.7386C1.75032 24.6974 1.85619 24.6478 1.95776 24.5902L16.5186 16.5951Z" fill="white"/>
<path d="M0.00850522 1.94005C0.0144238 3.35537 0.107148 22.2236 0.116026 23.4134C0.0902982 23.661 0.125802 23.9112 0.219399 24.1419C0.312996 24.3725 0.4618 24.5764 0.652648 24.7357L12.5668 12.6371L0.600367 0.643494C0.393848 0.785485 0.229684 0.981134 0.125431 1.20951C0.0211803 1.43789 -0.0192362 1.69041 0.00850522 1.94005Z" fill="white"/>
<path d="M17.1588 8.98105L13.5613 12.6341L17.1627 16.2417L22.1127 13.523C22.7045 13.1953 23.3339 12.36 22.1127 11.6919L17.1588 8.98105Z" fill="white"/>
<path d="M1.95772 0.659347C1.7996 0.5753 1.62738 0.521278 1.44971 0.5L13.0631 12.1343L16.5156 8.62869L1.95772 0.659347Z" fill="white"/>
</g>
<defs>
<clipPath id="clip0_7_87667">
<rect width="23" height="25" fill="white" transform="translate(0 0.5)"/>
</clipPath>
</defs>
</svg>
