<svg width="46" height="46" viewBox="0 0 46 46" fill="none" xmlns="http://www.w3.org/2000/svg">
<rect width="46" height="46" rx="13" fill="#0328EE"/>
<g clip-path="url(#clip0_7_78680)">
<path d="M22.7719 28.1763C16.4229 28.1763 11.0022 29.1913 11.0022 33.2468C11.0022 37.3007 16.3899 38.3523 22.7719 38.3523C29.1193 38.3523 34.5416 37.3373 34.5416 33.2818C34.5416 29.2263 29.1539 28.1763 22.7719 28.1763Z" fill="white"/>
<path opacity="0.4" d="M22.7719 24.3139C27.0947 24.3139 30.5598 20.8041 30.5598 16.4257C30.5598 12.0472 27.0947 8.53589 22.7719 8.53589C18.4492 8.53589 14.9841 12.0472 14.9841 16.4257C14.9841 20.8041 18.4492 24.3139 22.7719 24.3139Z" fill="white"/>
</g>
<defs>
<clipPath id="clip0_7_78680">
<rect width="24" height="31" fill="white" transform="translate(11 8)"/>
</clipPath>
</defs>
</svg>
