<svg width="46" height="46" viewBox="0 0 46 46" fill="none" xmlns="http://www.w3.org/2000/svg">
<rect width="46" height="46" rx="13" fill="#0328EE"/>
<g clip-path="url(#clip0_7_78673)">
<path opacity="0.4" d="M31.632 16.7878C35.1006 16.7878 37.9239 19.7028 37.9239 23.2855V30.4071C37.9239 33.9811 35.1077 36.8888 31.6462 36.8888H15.9151C12.4451 36.8888 9.62036 33.9753 9.62036 30.3925V23.2709C9.62036 19.697 12.438 16.7878 15.9009 16.7878H17.2312H31.632Z" fill="white"/>
<path d="M24.5448 29.1578L28.6616 24.9577C29.0861 24.5236 29.0861 23.825 28.6587 23.3924C28.2314 22.9611 27.5422 22.9626 27.1176 23.3952L24.8632 25.6951V11.1068C24.8632 10.4959 24.375 10 23.7721 10C23.1707 10 22.6839 10.4959 22.6839 11.1068V25.6951L20.4281 23.3952C20.0035 22.9626 19.3143 22.9611 18.8869 23.3924C18.6732 23.6094 18.5657 23.8926 18.5657 24.1772C18.5657 24.4589 18.6732 24.7421 18.8841 24.9577L23.0009 29.1578C23.2061 29.3663 23.4834 29.4841 23.7721 29.4841C24.0622 29.4841 24.3396 29.3663 24.5448 29.1578Z" fill="white"/>
</g>
<defs>
<clipPath id="clip0_7_78673">
<rect width="29" height="27" fill="white" transform="translate(9 10)"/>
</clipPath>
</defs>
</svg>
