<svg width="184" height="33" viewBox="0 0 184 33" fill="none" xmlns="http://www.w3.org/2000/svg">
<g clip-path="url(#clip0_7_87463)">
<path d="M40.9915 14.4083C40.9915 12.5083 41.4157 10.8111 42.2643 9.31686C43.1313 7.80418 44.3028 6.63278 45.7785 5.80265C47.2728 4.95407 48.9423 4.52979 50.787 4.52979C52.9453 4.52979 54.8362 5.08321 56.4595 6.19005C58.0829 7.29689 59.2174 8.82802 59.8631 10.7834H55.4081C54.9653 9.86107 54.3381 9.16929 53.5264 8.70811C52.7332 8.24693 51.8108 8.01632 50.7593 8.01632C49.634 8.01632 48.6287 8.28382 47.7432 8.81879C46.8762 9.33532 46.1936 10.0732 45.6955 11.0325C45.2159 11.9917 44.9761 13.117 44.9761 14.4083C44.9761 15.6812 45.2159 16.8065 45.6955 17.7842C46.1936 18.7435 46.8762 19.4906 47.7432 20.0256C48.6287 20.5421 49.634 20.8003 50.7593 20.8003C51.8108 20.8003 52.7332 20.5698 53.5264 20.1086C54.3381 19.6289 54.9653 18.9279 55.4081 18.0056H59.8631C59.2174 19.9794 58.0829 21.5198 56.4595 22.6266C54.8546 23.715 52.9638 24.2592 50.787 24.2592C48.9423 24.2592 47.2728 23.8442 45.7785 23.014C44.3028 22.1654 43.1313 20.994 42.2643 19.4998C41.4157 18.0056 40.9915 16.3084 40.9915 14.4083Z" fill="white"/>
<path d="M69.979 24.3424C68.5032 24.3424 67.175 24.0196 65.9944 23.3739C64.8137 22.7098 63.8821 21.7783 63.1996 20.5792C62.5355 19.3801 62.2034 17.9965 62.2034 16.4285C62.2034 14.8605 62.5447 13.4769 63.2273 12.2779C63.9283 11.0788 64.8783 10.1565 66.0774 9.51081C67.2765 8.8467 68.6139 8.51465 70.0897 8.51465C71.5655 8.51465 72.9029 8.8467 74.102 9.51081C75.3011 10.1565 76.2419 11.0788 76.9244 12.2779C77.6254 13.4769 77.9759 14.8605 77.9759 16.4285C77.9759 17.9965 77.6162 19.3801 76.8967 20.5792C76.1957 21.7783 75.2365 22.7098 74.019 23.3739C72.8199 24.0196 71.4732 24.3424 69.979 24.3424ZM69.979 20.9666C70.68 20.9666 71.3349 20.8005 71.9436 20.4685C72.5708 20.118 73.0689 19.6015 73.4379 18.9189C73.8068 18.2364 73.9913 17.4062 73.9913 16.4285C73.9913 14.9712 73.6039 13.8551 72.8291 13.0803C72.0728 12.2871 71.1412 11.8905 70.0343 11.8905C68.9275 11.8905 67.9959 12.2871 67.2396 13.0803C66.5017 13.8551 66.1327 14.9712 66.1327 16.4285C66.1327 17.8859 66.4924 19.0112 67.2119 19.8044C67.9498 20.5792 68.8722 20.9666 69.979 20.9666Z" fill="white"/>
<path d="M99.8552 8.54199C101.737 8.54199 103.25 9.12308 104.393 10.2853C105.555 11.429 106.137 13.0339 106.137 15.1V24.0931H102.263V15.6258C102.263 14.4267 101.958 13.5135 101.35 12.8863C100.741 12.2407 99.9106 11.9178 98.8591 11.9178C97.8076 11.9178 96.9682 12.2407 96.341 12.8863C95.7323 13.5135 95.4279 14.4267 95.4279 15.6258V24.0931H91.5539V15.6258C91.5539 14.4267 91.2496 13.5135 90.6408 12.8863C90.032 12.2407 89.2019 11.9178 88.1504 11.9178C87.0805 11.9178 86.2319 12.2407 85.6047 12.8863C84.9959 13.5135 84.6915 14.4267 84.6915 15.6258V24.0931H80.8176V8.76336H84.6915V10.6173C85.1896 9.97166 85.8261 9.46436 86.6008 9.09541C87.3941 8.72647 88.2611 8.54199 89.2019 8.54199C90.401 8.54199 91.4709 8.80026 92.4118 9.31678C93.3526 9.81486 94.0812 10.5343 94.5978 11.4751C95.0958 10.5897 95.8153 9.87943 96.7561 9.34445C97.7154 8.80948 98.7484 8.54199 99.8552 8.54199Z" fill="white"/>
<path d="M113.687 10.9774C114.185 10.2764 114.867 9.69528 115.734 9.2341C116.62 8.75447 117.625 8.51465 118.75 8.51465C120.06 8.51465 121.241 8.83748 122.292 9.48314C123.362 10.1288 124.202 11.0511 124.81 12.2502C125.438 13.4308 125.751 14.8052 125.751 16.3732C125.751 17.9412 125.438 19.334 124.81 20.5515C124.202 21.7506 123.362 22.6822 122.292 23.3463C121.241 24.0104 120.06 24.3424 118.75 24.3424C117.625 24.3424 116.629 24.1118 115.762 23.6507C114.913 23.1895 114.222 22.6084 113.687 21.9074V31.3985H109.813V8.76369H113.687V10.9774ZM121.794 16.3732C121.794 15.4508 121.601 14.6576 121.213 13.9935C120.844 13.3109 120.346 12.7944 119.719 12.4439C119.11 12.0934 118.446 11.9181 117.727 11.9181C117.026 11.9181 116.362 12.1026 115.734 12.4716C115.126 12.8221 114.627 13.3386 114.24 14.0211C113.871 14.7037 113.687 15.5062 113.687 16.4285C113.687 17.3509 113.871 18.1533 114.24 18.8359C114.627 19.5185 115.126 20.0442 115.734 20.4132C116.362 20.7636 117.026 20.9389 117.727 20.9389C118.446 20.9389 119.11 20.7544 119.719 20.3855C120.346 20.0165 120.844 19.4908 121.213 18.8082C121.601 18.1257 121.794 17.314 121.794 16.3732Z" fill="white"/>
<path d="M127.57 16.3732C127.57 14.8236 127.875 13.4493 128.483 12.2502C129.11 11.0511 129.95 10.1288 131.001 9.48314C132.071 8.83748 133.261 8.51465 134.571 8.51465C135.715 8.51465 136.711 8.74524 137.559 9.20643C138.426 9.66761 139.118 10.2487 139.635 10.9497V8.76369H143.536V24.0934H139.635V21.852C139.137 22.5715 138.445 23.171 137.559 23.6507C136.692 24.1118 135.687 24.3424 134.543 24.3424C133.252 24.3424 132.071 24.0104 131.001 23.3463C129.95 22.6822 129.11 21.7506 128.483 20.5515C127.875 19.334 127.57 17.9412 127.57 16.3732ZM139.635 16.4285C139.635 15.4877 139.45 14.6852 139.081 14.0211C138.712 13.3386 138.214 12.8221 137.587 12.4716C136.96 12.1026 136.287 11.9181 135.567 11.9181C134.848 11.9181 134.184 12.0934 133.575 12.4439C132.966 12.7944 132.468 13.3109 132.081 13.9935C131.712 14.6576 131.527 15.4508 131.527 16.3732C131.527 17.2955 131.712 18.1072 132.081 18.8082C132.468 19.4908 132.966 20.0165 133.575 20.3855C134.202 20.7544 134.866 20.9389 135.567 20.9389C136.287 20.9389 136.96 20.7636 137.587 20.4132C138.214 20.0442 138.712 19.5277 139.081 18.8636C139.45 18.181 139.635 17.3693 139.635 16.4285Z" fill="white"/>
<path d="M155.815 8.54199C157.641 8.54199 159.117 9.12308 160.242 10.2853C161.368 11.429 161.93 13.0339 161.93 15.1V24.0931H158.056V15.6258C158.056 14.4082 157.752 13.4766 157.143 12.831C156.534 12.1669 155.704 11.8348 154.653 11.8348C153.583 11.8348 152.734 12.1669 152.107 12.831C151.498 13.4766 151.194 14.4082 151.194 15.6258V24.0931H147.32V8.76336H151.194V10.6727C151.71 10.0086 152.365 9.49203 153.158 9.12308C153.97 8.73569 154.856 8.54199 155.815 8.54199Z" fill="white"/>
<path d="M180.28 8.76367L170.789 31.3432H166.666L169.986 23.706L163.843 8.76367H168.187L172.144 19.4723L176.157 8.76367H180.28Z" fill="white"/>
<path d="M5.59822 32.4241H2.83667V13.0859H13.1956V24.8268C13.1956 29.0221 9.79597 32.4241 5.59822 32.4241Z" fill="#0328EE"/>
<path d="M27.008 13.0858C27.008 6.41224 21.5982 1 14.9222 1C14.3359 1 13.7595 1.04434 13.1953 1.12564V13.0858H27.008Z" fill="#0328EE"/>
<path d="M23.0949 25.826C25.7441 24.745 27.0154 21.7212 25.9345 19.072C24.8535 16.4228 21.8296 15.1515 19.1804 16.2324C16.5312 17.3134 15.2599 20.3373 16.3409 22.9865C17.4219 25.6357 20.4458 26.907 23.0949 25.826Z" fill="white"/>
</g>
<defs>
<clipPath id="clip0_7_87463">
<rect width="179" height="32" fill="white" transform="translate(2 1)"/>
</clipPath>
</defs>
</svg>
