<svg width="68" height="68" viewBox="0 0 68 68" fill="none" xmlns="http://www.w3.org/2000/svg">
<rect width="68" height="68" rx="20" fill="#0328EE"/>
<path opacity="0.4" d="M15.454 22.1416H39.8178C40.9449 22.1416 41.8597 23.0564 41.8597 24.1835C41.8597 25.3106 40.9449 26.2254 39.8178 26.2254H15.454C14.3269 26.2254 13.4121 25.3106 13.4121 24.1835C13.4121 23.0564 14.3269 22.1416 15.454 22.1416Z" fill="white"/>
<mask id="mask0_357_28867" style="mask-type:alpha" maskUnits="userSpaceOnUse" x="37" y="13" width="18" height="22">
<path fill-rule="evenodd" clip-rule="evenodd" d="M37 34.9889V13H54.5697V34.9889H37Z" fill="white"/>
</mask>
<g mask="url(#mask0_357_28867)">
<path d="M38.379 13.1875C38.6364 13.1875 38.8901 13.2592 39.1144 13.3989L53.706 22.5941C54.1068 22.8478 54.3514 23.2873 54.3514 23.7616C54.3514 24.236 54.1068 24.6755 53.706 24.9292L39.1144 34.1243C38.6897 34.3909 38.1528 34.4075 37.7134 34.1629C37.2721 33.9202 37 33.4587 37 32.9568V14.5665C37 14.0645 37.2721 13.603 37.7134 13.3603C37.9211 13.2445 38.151 13.1875 38.379 13.1875Z" fill="white"/>
</g>
<path opacity="0.4" d="M52.8923 46.2624H28.5285C27.4014 46.2624 26.4866 45.3477 26.4866 44.2205C26.4866 43.0934 27.4014 42.1787 28.5285 42.1787H52.8923C54.0194 42.1787 54.9342 43.0934 54.9342 44.2205C54.9342 45.3477 54.0194 46.2624 52.8923 46.2624Z" fill="white"/>
<mask id="mask1_357_28867" style="mask-type:alpha" maskUnits="userSpaceOnUse" x="13" y="32" width="18" height="23">
<path fill-rule="evenodd" clip-rule="evenodd" d="M30.5697 32.9941V54.9829H13V32.9941H30.5697Z" fill="white"/>
</mask>
<g mask="url(#mask1_357_28867)">
<path d="M29.1906 54.7948C28.9332 54.7948 28.6795 54.7231 28.4552 54.5834L13.8636 45.3882C13.4628 45.1345 13.2183 44.6951 13.2183 44.2207C13.2183 43.7463 13.4628 43.3069 13.8636 43.0532L28.4552 33.858C28.8799 33.5914 29.4168 33.5749 29.8562 33.8194C30.2975 34.0621 30.5696 34.5236 30.5696 35.0256V53.4158C30.5696 53.9178 30.2975 54.3793 29.8562 54.622C29.6485 54.7378 29.4186 54.7948 29.1906 54.7948Z" fill="white"/>
</g>
</svg>
